Results
version=1
nRows=14
nColumns=24
inDegrees=yes
endheader
time	pelvis_tilt	pelvis_list	pelvis_rotation	pelvis_tx	pelvis_ty	pelvis_tz	hip_flexion_r	hip_adduction_r	hip_rotation_r	knee_angle_r	ankle_angle_r	subtalar_angle_r	mtp_angle_r	hip_flexion_l	hip_adduction_l	hip_rotation_l	knee_angle_l	ankle_angle_l	subtalar_angle_l	mtp_angle_l	lumbar_extension	lumbar_bending	lumbar_rotation
      0.69600000	     -1.13260021	     -0.20083329	     -4.35175805	     -0.51164056	      1.07010241	      0.31861934	     16.34046744	      4.79165461	     -3.69173717	    -19.88380739	      3.89774383	     -1.05919155	      1.78367110	     19.66417700	     -0.97999964	     -1.75836701	    -69.03964854	      4.23324004	     -2.40232881	      3.62041071	      4.13648600	      5.04232695	      3.27833727
      0.70016667	     -1.10794278	     -0.16618643	     -4.42930767	     -0.50653691	      1.07092725	      0.31890112	     15.95158884	      4.76226639	     -3.61945798	    -19.76618181	      4.05088023	     -0.98058614	      1.80751722	     20.27026257	     -0.93810562	     -1.62348612	    -68.89396633	      4.62058625	     -2.96792945	      3.62359650	      4.07273877	      4.99555251	      3.39548610
      0.70433333	     -1.09034174	     -0.12954234	     -4.50296036	     -0.50139816	      1.07174432	      0.31917780	     15.56070154	      4.73181248	     -3.53330885	    -19.63424681	      4.18833168	     -0.92014903	      1.82997597	     20.86249330	     -0.89437649	     -1.49403969	    -68.66429174	      4.97432338	     -3.48640311	      3.62343444	      4.01874102	      4.94820140	      3.50410723
      0.70850000	     -1.06057370	     -0.08596642	     -4.57319619	     -0.49630358	      1.07255283	      0.31944008	     15.15788691	      4.69354665	     -3.44724875	    -19.49019184	      4.31507115	     -0.87914549	      1.85182132	     21.42772548	     -0.83897146	     -1.36726007	    -68.35770021	      5.29633821	     -3.96763054	      3.61955930	      3.96051556	      4.88981314	      3.60620123
      0.71266667	     -1.03679516	     -0.07868928	     -4.61312112	     -0.49119507	      1.07333285	      0.31978292	     14.73966656	      4.70487580	     -3.32205474	    -19.30654696	      4.40372893	     -0.85296889	      1.86473041	     21.98393793	     -0.82973920	     -1.21495191	    -67.98474690	      5.54765681	     -4.29747022	      3.61526457	      3.91481838	      4.82140420	      3.67248504
      0.71683333	     -1.00434068	     -0.03377089	     -4.67303514	     -0.48604639	      1.07411753	      0.31998529	     14.32148259	      4.66066746	     -3.22616264	    -19.14478908	      4.51880483	     -0.86772374	      1.87911491	     22.50043798	     -0.76568073	     -1.09137982	    -67.51829079	      5.86962907	     -4.72530315	      3.60739918	      3.86853289	      4.76716282	      3.74546312
      0.72100000	     -0.98757098	      0.02193167	     -4.75069172	     -0.48092811	      1.07484291	      0.32013328	     13.92958740	      4.60478114	     -3.12883005	    -18.99914396	      4.63089224	     -0.90487212	      1.90119828	     23.01392778	     -0.68817111	     -0.99198952	    -66.97376492	      6.10504582	     -5.21702456	      3.58771361	      3.78892017	      4.74098315	      3.84078274
      0.72516667	     -0.98854683	      0.05165845	     -4.78314935	     -0.47581726	      1.07550391	      0.32028492	     13.54008861	      4.57958093	     -3.00782344	    -18.81359604	      4.66801980	     -0.90744612	      1.90534239	     23.53461598	     -0.63441324	     -0.83760545	    -66.36203862	      6.20436861	     -5.32642736	      3.58299555	      3.72746251	      4.72434944	      3.85896625
      0.72933333	     -0.94420200	      0.05779256	     -4.80537859	     -0.47060405	      1.07623618	      0.32058598	     13.07288886	      4.59552275	     -2.86049313	    -18.58320332	      4.77791133	     -0.98617897	      1.91617378	     23.97103671	     -0.61691294	     -0.70832391	    -65.68076490	      6.49186421	     -5.73952461	      3.56752396	      3.76329295	      4.63210134	      3.93004616
      0.73350000	     -0.92010161	      0.08858850	     -4.86334336	     -0.46543227	      1.07689608	      0.32074090	     12.64604319	      4.57501080	     -2.70795785	    -18.38569910	      4.86503018	     -1.11413008	      1.92886439	     24.40439898	     -0.56764276	     -0.61092122	    -64.91382895	      6.67854639	     -6.16393475	      3.54204912	      3.70754114	      4.60405571	      3.99186322
      0.73766667	     -0.90442916	      0.10456130	     -4.89318166	     -0.46026269	      1.07749595	      0.32088898	     12.22082178	      4.57213289	     -2.55630826	    -18.17284984	      4.92504376	     -1.23259547	      1.93963479	     24.82960897	     -0.52747896	     -0.48601560	    -64.08232491	      6.78266015	     -6.48278378	      3.51538015	      3.66851525	      4.57544913	      4.04544839
      0.74183333	     -0.94959834	      0.11879251	     -4.91647964	     -0.45513509	      1.07793929	      0.32087823	     11.87473035	      4.56211373	     -2.43700948	    -17.98625205	      4.95995899	     -1.27834770	      1.94254568	     25.30592353	     -0.47577577	     -0.33896731	    -63.19379932	      6.86575170	     -6.59756550	      3.50591212	      3.58413925	      4.60049080	      4.05093972
      0.74600000	     -0.90824022	      0.11137986	     -4.93843774	     -0.44985350	      1.07853443	      0.32110336	     11.39025853	      4.59827322	     -2.23372599	    -17.72250655	      5.05305518	     -1.48982159	      1.94948132	     25.64004166	     -0.46770658	     -0.23462515	    -62.21575063	      7.02267189	     -7.01740717	      3.47563480	      3.67209116	      4.56751123	      4.10482655
      0.75016667	     -0.97118920	      0.11726310	     -4.95258379	     -0.44471950	      1.07886146	      0.32104715	     11.05693770	      4.59948948	     -2.09250958	    -17.52647911	      5.08968250	     -1.57677395	      1.95176779	     26.08617563	     -0.42164657	     -0.08538659	    -61.18945715	      7.09306798	     -7.17186669	      3.46158148	      3.57835035	      4.59930264	      4.10884282
